<?xml version="1.0" standalone="no"?>
<!DOCTYPE svg PUBLIC "-//W3C//DTD SVG 20010904//EN"
 "http://www.w3.org/TR/2001/REC-SVG-20010904/DTD/svg10.dtd">
<svg version="1.0" xmlns="http://www.w3.org/2000/svg"
 width="640.000000pt" height="640.000000pt" viewBox="0 0 640.000000 640.000000"
 preserveAspectRatio="xMidYMid meet">
<metadata>
Created by potrace 1.11, written by Peter Selinger 2001-2013
</metadata>
<g transform="translate(0.000000,640.000000) scale(0.100000,-0.100000)"
fill="#000000" stroke="none">
<path d="M3130 5833 l0 -262 53 3 c28 3 55 5 59 5 4 1 7 115 8 255 l0 254 -60
4 -60 3 0 -262z"/>
<path d="M2833 5855 c-32 -22 -35 -64 -7 -92 30 -30 59 -29 90 2 55 55 -19
135 -83 90z"/>
<path d="M3392 5854 c-46 -32 -17 -114 41 -114 30 0 69 47 61 73 -16 54 -59
72 -102 41z"/>
<path d="M2557 5827 c-62 -50 -21 -133 57 -113 40 10 53 88 19 109 -21 13 -62
15 -76 4z"/>
<path d="M3676 5827 c-8 -7 -20 -24 -25 -39 -23 -61 63 -105 109 -56 22 24 21
61 -3 85 -18 18 -63 23 -81 10z"/>
<path d="M2280 5740 c-27 -27 -25 -62 4 -89 27 -26 62 -24 90 5 36 35 3 104
-49 104 -14 0 -34 -9 -45 -20z"/>
<path d="M3937 5748 c-9 -7 -19 -25 -22 -40 -5 -21 -1 -33 19 -52 14 -15 34
-26 46 -26 50 0 80 79 42 113 -22 20 -62 22 -85 5z"/>
<path d="M1753 5709 c-18 -12 -33 -23 -33 -26 0 -10 250 -443 255 -443 3 0 72
38 83 46 7 5 -252 444 -262 444 -6 0 -26 -10 -43 -21z"/>
<path d="M4435 5509 c-70 -121 -125 -221 -123 -223 9 -7 80 -46 83 -46 4 0
255 435 255 443 0 6 -68 47 -79 47 -5 0 -66 -99 -136 -221z"/>
<path d="M2055 5658 c-27 -15 -35 -28 -35 -59 0 -54 70 -79 110 -39 27 27 25
56 -5 85 -27 28 -40 30 -70 13z"/>
<path d="M4187 5659 c-39 -23 -41 -86 -3 -111 38 -26 96 7 96 53 0 50 -51 82
-93 58z"/>
<path d="M1557 5382 c-34 -38 -15 -95 35 -107 21 -5 33 -1 52 19 15 14 26 34
26 46 0 50 -79 80 -113 42z"/>
<path d="M4664 5392 c-58 -39 -18 -133 50 -116 49 12 65 66 31 104 -18 20 -60
26 -81 12z"/>
<path d="M4880 5222 c-44 -36 -17 -112 40 -112 29 0 54 22 64 57 5 17 1 29
-18 48 -30 30 -55 32 -86 7z"/>
<path d="M1372 5219 c-43 -16 -48 -85 -8 -111 33 -22 85 0 98 42 6 16 -17 69
-30 71 -4 0 -14 2 -22 3 -8 2 -25 0 -38 -5z"/>
<path d="M1150 5010 c-41 -41 -14 -110 41 -110 33 0 56 19 64 52 5 21 1 33
-19 52 -30 31 -59 33 -86 6z"/>
<path d="M5070 5012 c-28 -23 -30 -80 -4 -99 26 -19 68 -16 87 5 25 27 22 78
-5 96 -29 21 -51 20 -78 -2z"/>
<path d="M993 4807 c-49 -22 -45 -101 5 -114 37 -10 54 -5 74 20 17 22 15 59
-4 83 -12 17 -51 22 -75 11z"/>
<path d="M5267 4812 c-54 -7 -66 -83 -19 -118 24 -18 75 -2 90 28 24 51 -13
98 -71 90z"/>
<path d="M716 4683 c-3 -10 -13 -29 -20 -42 -14 -24 -14 -24 202 -147 119 -68
222 -124 227 -125 6 -1 20 16 33 39 l23 41 -68 39 c-222 129 -371 212 -380
212 -6 0 -14 -8 -17 -17z"/>
<path d="M5420 4582 c-113 -64 -211 -121 -217 -125 -10 -6 -9 -15 3 -40 9 -18
21 -37 26 -44 6 -8 72 25 228 114 121 69 220 131 220 137 0 15 -38 76 -47 76
-5 0 -100 -53 -213 -118z"/>
<path d="M3134 4663 c5 -10 -4 -13 -33 -13 -23 0 -41 -4 -41 -9 0 -6 -9 -8
-20 -6 -11 2 -20 0 -20 -6 0 -5 -9 -9 -21 -9 -13 0 -18 -4 -13 -12 5 -7 3 -8
-5 -3 -8 4 -24 -4 -42 -21 -16 -15 -29 -24 -29 -18 -1 5 -8 -3 -16 -18 -8 -16
-19 -28 -24 -28 -6 0 -10 -6 -10 -13 0 -7 -9 -18 -21 -25 -12 -8 -18 -9 -14
-3 5 10 -7 15 -27 12 -5 0 -8 4 -8 10 0 5 -4 8 -9 5 -5 -3 -14 1 -21 9 -7 8
-26 15 -42 15 -19 0 -27 4 -22 11 4 8 1 8 -13 1 -11 -6 -25 -7 -33 -2 -8 5
-19 6 -25 2 -13 -9 -37 -9 -53 2 -8 5 -11 3 -10 -5 2 -9 -7 -13 -24 -13 -16 1
-28 -3 -28 -7 0 -5 -7 -9 -15 -9 -9 0 -18 -7 -21 -15 -5 -12 -9 -13 -21 -4 -8
7 -13 8 -12 3 3 -20 -2 -35 -10 -29 -6 3 -20 -8 -32 -25 -13 -16 -29 -30 -37
-30 -12 0 -12 -3 -1 -17 7 -10 9 -15 4 -10 -9 7 -44 -56 -45 -80 0 -7 -5 -13
-11 -13 -8 0 -8 -5 1 -15 7 -8 8 -15 3 -15 -12 0 -4 -123 9 -131 6 -4 5 -9 -3
-12 -10 -4 -10 -6 -1 -6 6 -1 12 -10 12 -21 0 -11 5 -20 11 -20 5 0 8 -4 4 -9
-3 -5 -1 -12 5 -16 6 -4 7 -11 4 -17 -4 -7 -2 -8 4 -4 6 3 16 -3 22 -15 17
-31 73 -78 93 -79 10 0 15 -4 12 -10 -4 -6 5 -10 19 -10 14 0 26 -4 26 -9 0
-5 7 -12 16 -15 8 -3 12 -2 9 4 -3 6 -2 10 4 10 5 0 15 -8 20 -17 6 -10 11
-13 11 -7 0 7 7 15 16 18 14 5 15 4 4 -9 -11 -14 -10 -14 13 -6 17 7 28 7 32
1 4 -6 15 -4 28 3 12 8 32 13 44 12 12 -1 21 1 19 4 -3 3 7 11 20 18 18 8 23
8 18 0 -3 -7 1 -4 9 6 9 10 17 17 19 15 1 -1 14 5 28 15 13 9 21 17 16 17 -4
0 2 9 15 19 25 20 56 11 42 -13 -4 -6 1 -5 10 3 15 12 17 11 17 -3 0 -8 11
-18 25 -22 14 -3 25 -10 25 -14 0 -7 57 -24 73 -21 4 0 7 -2 7 -6 0 -5 15 -8
33 -7 17 0 38 -4 45 -9 8 -7 18 -4 30 7 10 9 22 13 26 9 9 -9 46 -12 41 -3 -4
6 33 19 68 24 4 1 11 6 15 12 9 13 43 28 57 25 6 -2 7 1 3 5 -10 9 30 44 51
44 13 0 13 2 2 9 -11 7 -9 11 8 20 11 7 21 8 21 3 0 -16 63 -72 73 -65 6 3 8
2 5 -3 -3 -5 0 -15 8 -22 11 -10 14 -10 14 0 0 8 5 6 11 -5 6 -9 14 -15 20
-12 5 4 9 2 9 -4 0 -5 8 -10 18 -10 63 -3 72 -5 67 -20 -4 -11 -1 -11 14 3 13
12 20 14 23 5 3 -9 9 -9 27 1 19 10 22 10 16 -2 -6 -10 -5 -11 6 0 7 6 23 12
35 12 13 0 26 5 29 10 4 6 11 8 16 5 5 -4 9 -2 9 3 0 6 7 12 14 15 11 4 13 1
10 -11 -3 -9 1 -6 9 8 9 14 19 25 23 25 7 0 45 37 82 80 15 18 16 28 0 19 -7
-5 -8 -3 -4 5 5 7 15 10 25 6 12 -5 13 -4 4 6 -10 10 -9 15 5 26 11 10 12 12
2 7 -12 -6 -13 -4 -2 7 6 7 12 21 12 31 0 10 6 18 13 18 9 0 8 3 -2 9 -8 5 -9
11 -3 15 10 6 9 39 -3 69 -5 11 -2 17 6 17 9 0 10 3 4 8 -11 8 -35 48 -35 58
0 4 6 3 13 -2 7 -5 3 0 -10 11 -13 12 -23 25 -23 30 0 6 5 3 10 -5 5 -8 10
-10 10 -4 0 14 -100 119 -114 119 -6 1 -10 6 -8 13 1 7 -1 11 -5 11 -5 -1 -11
0 -15 1 -13 4 -27 7 -39 9 -5 0 -8 5 -5 9 3 5 -1 9 -9 9 -8 0 -11 -5 -8 -11 4
-6 0 -5 -9 2 -20 16 -111 23 -120 8 -6 -8 -8 -8 -8 1 0 10 -11 9 -42 -4 -24
-9 -49 -21 -57 -27 -11 -8 -13 -8 -7 2 12 21 -4 13 -28 -13 -13 -13 -26 -22
-29 -19 -3 3 -10 -4 -17 -15 -10 -20 -40 -30 -40 -13 0 5 -7 17 -16 28 -8 10
-12 13 -8 5 5 -9 3 -12 -4 -7 -7 4 -12 13 -12 19 0 7 -13 24 -30 39 -16 14
-30 24 -30 20 0 -3 -10 4 -23 16 -18 17 -26 19 -35 10 -9 -9 -11 -7 -8 9 4 16
0 20 -15 16 -12 -3 -19 0 -19 8 0 11 -2 11 -10 -1 -5 -8 -10 -10 -10 -3 0 6
-13 10 -30 9 -16 -1 -30 1 -30 5 0 4 -8 6 -17 4 -10 -1 -24 3 -32 9 -11 8 -13
8 -7 -1z"/>
<path d="M691 4304 c-12 -15 -21 -32 -21 -39 0 -27 41 -65 70 -65 60 0 85 81
37 115 -32 22 -63 18 -86 -11z"/>
<path d="M5520 4310 c-39 -39 -11 -110 45 -110 29 0 65 36 65 65 0 29 -36 65
-65 65 -14 0 -34 -9 -45 -20z"/>
<path d="M5625 4069 c-16 -14 -25 -30 -25 -49 0 -26 21 -59 38 -61 4 0 15 -2
26 -4 21 -4 66 36 66 60 0 29 -19 53 -49 63 -25 9 -34 7 -56 -9z"/>
<path d="M604 4072 c-23 -15 -34 -50 -25 -75 11 -29 18 -34 55 -41 42 -8 78
34 65 76 -5 18 -14 35 -21 40 -16 10 -59 10 -74 0z"/>
<path d="M4694 4011 c-32 -15 -86 -40 -119 -56 -33 -15 -100 -46 -150 -70
-245 -117 -413 -195 -428 -198 -7 -1 -14 -5 -17 -8 -3 -4 -21 -13 -40 -21
l-35 -15 1 111 c1 65 -2 103 -7 91 l-8 -20 0 20 c-1 12 -4 16 -9 9 -4 -6 -17
-10 -29 -9 -13 1 -19 -3 -16 -8 4 -6 0 -8 -10 -4 -10 3 -17 2 -17 -3 0 -6 -5
-10 -11 -10 -5 0 -7 5 -3 12 5 7 3 8 -7 2 -19 -12 -109 -14 -109 -3 0 5 -8 1
-18 -8 -20 -19 -21 -30 -8 -52 6 -9 5 -12 -1 -8 -12 7 -11 -42 1 -61 4 -7 3
-12 -3 -12 -6 0 -8 -7 -5 -15 4 -8 1 -15 -6 -15 -7 0 -5 -6 4 -16 9 -8 13 -20
10 -26 -4 -6 -7 -31 -7 -55 0 -41 -3 -46 -36 -62 -29 -15 -38 -16 -48 -6 -9
10 -9 16 0 25 9 10 9 11 0 6 -8 -4 -10 4 -8 26 2 18 4 34 5 36 7 7 5 29 -4 40
-7 9 -6 16 3 22 11 6 11 9 0 13 -12 4 -11 7 1 16 10 7 11 11 3 11 -15 0 -13
41 2 52 6 5 5 8 -2 8 -7 0 -13 7 -13 16 0 9 5 12 13 8 7 -5 6 0 -3 11 -16 19
-15 21 3 44 9 10 6 17 -10 31 -12 10 -20 20 -17 22 2 3 -7 4 -21 3 -14 -2 -23
1 -20 5 3 5 -3 13 -12 19 -13 7 -23 5 -37 -7 -12 -11 -16 -12 -11 -3 6 10 4
12 -4 7 -7 -5 -10 -15 -6 -25 5 -12 3 -13 -6 -4 -9 9 -15 9 -25 0 -32 -28 -40
-33 -51 -30 -6 2 -17 -3 -26 -11 -8 -8 -17 -13 -20 -10 -11 11 -49 -18 -43
-33 5 -11 2 -14 -11 -9 -16 5 -16 4 -3 -6 15 -13 22 -68 9 -68 -7 0 -3 -55 6
-79 4 -9 0 -11 -12 -7 -16 5 -16 4 -3 -6 15 -13 21 -59 8 -68 -14 -11 -87 2
-92 17 -4 9 -2 12 7 7 9 -6 9 -4 -1 8 -9 12 -10 18 -2 23 8 5 8 10 0 20 -8 9
-8 15 0 20 6 3 7 12 3 18 -11 19 -11 47 1 47 7 0 8 3 1 8 -13 9 -13 72 -1 72
19 0 -4 12 -38 20 -25 5 -36 4 -36 -4 0 -6 -4 -5 -9 3 -5 7 -14 10 -20 7 -6
-4 -11 -3 -11 2 0 5 -13 8 -29 7 -17 -1 -29 3 -28 8 1 5 -7 11 -17 13 -10 1
-23 9 -27 16 -7 11 -9 11 -9 0 0 -10 -4 -10 -15 2 -17 17 -43 11 -61 -13 -6
-8 -10 -36 -9 -62 1 -29 -3 -45 -8 -42 -6 4 -7 1 -2 -7 12 -19 14 -91 3 -84
-6 4 -6 -1 0 -13 7 -12 7 -24 0 -37 -7 -12 -7 -16 -1 -13 6 4 11 -4 11 -18 0
-14 -4 -22 -9 -20 -4 3 -4 -7 0 -22 4 -16 4 -40 0 -56 -4 -16 -4 -25 2 -21 6
3 7 -5 3 -20 -3 -15 -1 -32 5 -40 9 -11 9 -16 0 -22 -8 -5 -9 -3 -4 6 5 8 4
11 -3 6 -7 -4 -8 -17 -2 -36 6 -21 5 -30 -3 -30 -8 0 -7 -3 2 -9 9 -6 10 -11
2 -15 -6 -4 -8 -12 -5 -18 10 -17 12 -168 2 -168 -5 0 -6 -5 -2 -12 11 -18 13
-68 2 -62 -6 4 -5 -3 1 -14 7 -14 8 -23 1 -27 -6 -4 -7 -11 -4 -17 10 -16 12
-98 2 -92 -4 3 -4 -6 2 -20 6 -17 6 -26 -3 -30 -9 -3 -9 -5 0 -5 7 -1 10 -8 7
-16 -4 -9 -1 -15 7 -15 8 0 5 -6 -7 -16 -10 -8 -14 -13 -9 -11 6 3 10 -13 11
-39 0 -24 -4 -44 -10 -44 -6 0 -6 -4 1 -11 6 -6 9 -18 6 -25 -3 -8 1 -22 8
-31 11 -13 11 -15 1 -9 -11 6 -13 -2 -12 -40 4 -73 3 -76 -21 -69 -15 5 -19 4
-14 -5 6 -9 3 -9 -12 -1 -14 7 -23 7 -31 -1 -7 -7 -10 -1 -8 21 1 17 -3 31 -8
31 -6 0 -4 5 4 10 8 5 11 10 5 10 -5 0 -10 11 -10 25 0 14 2 25 5 25 3 0 5 11
5 25 0 14 -4 25 -9 25 -5 0 -3 7 4 15 10 12 10 15 0 15 -10 0 -10 3 0 15 10
12 10 15 0 15 -10 0 -10 3 0 15 10 12 10 15 0 15 -10 0 -10 3 -1 14 9 11 9 15
-1 19 -10 4 -10 6 1 6 11 1 11 4 1 16 -10 12 -10 15 0 15 10 0 10 3 0 15 -10
12 -10 15 1 15 12 0 12 2 0 9 -11 7 -11 9 0 14 11 4 11 6 1 6 -8 1 -10 6 -5
14 10 17 10 41 -1 49 -6 4 -4 13 3 22 11 13 11 16 0 16 -12 0 -12 2 0 9 9 6
10 10 2 16 -9 5 -9 10 0 21 9 11 8 14 -2 14 -9 0 -10 3 -4 8 14 10 14 52 1 52
-6 0 -4 5 4 10 8 5 11 10 5 10 -5 0 -10 11 -10 25 0 14 4 25 8 25 5 0 5 5 2
10 -4 6 -1 18 6 26 7 8 8 14 3 13 -21 -4 -26 2 -14 16 10 12 10 15 0 15 -10 0
-10 3 0 15 10 12 10 15 0 15 -10 0 -10 3 0 15 10 12 10 15 0 15 -10 0 -10 3 0
15 10 12 10 15 0 15 -10 0 -10 3 0 15 10 12 10 15 -1 15 -11 0 -11 2 1 10 12
8 12 10 1 10 -11 0 -11 3 -1 15 7 8 8 15 3 15 -11 0 -11 29 1 48 4 7 2 12 -5
12 -8 0 -8 4 2 16 7 9 9 18 3 22 -10 8 -14 52 -5 52 3 0 6 11 6 25 0 14 -4 25
-9 25 -5 0 -3 7 4 15 10 12 10 15 0 15 -10 0 -10 3 -1 14 9 11 9 16 0 21 -8 6
-7 10 2 17 10 7 11 11 2 14 -8 4 -9 14 -3 34 5 18 5 32 -1 35 -5 4 -9 3 -9 -1
0 -3 -6 -1 -14 5 -11 10 -20 9 -38 -1 -13 -8 -36 -12 -53 -11 -16 2 -38 4 -48
4 -9 0 -15 5 -11 11 4 6 -1 6 -14 -1 -15 -8 -21 -8 -25 2 -3 9 -7 9 -19 -1
-10 -8 -19 -9 -22 -3 -3 5 -21 8 -39 7 -17 -1 -40 2 -51 7 -12 6 -16 5 -12 -1
6 -11 -44 -9 -62 2 -7 4 -12 3 -12 -2 0 -11 -50 -9 -68 2 -6 3 -13 3 -16 -2
-3 -5 -19 -7 -35 -6 -18 1 -31 -3 -31 -9 0 -8 -3 -8 -8 1 -6 9 -14 7 -30 -8
-12 -12 -26 -19 -30 -17 -9 6 -33 -19 -25 -27 4 -3 -1 -6 -11 -6 -9 0 -15 -4
-11 -9 3 -5 -1 -16 -9 -24 -8 -8 -12 -17 -9 -21 4 -3 1 -6 -6 -6 -9 0 -9 -5 0
-21 8 -17 8 -20 -1 -14 -8 5 -11 3 -8 -6 3 -8 2 -26 -2 -40 -5 -15 -4 -32 1
-40 5 -8 3 -16 -4 -21 -9 -6 -9 -8 0 -8 8 0 9 -9 3 -29 -4 -16 -6 -32 -3 -35
7 -7 11 -86 4 -86 -3 0 -6 -11 -6 -24 0 -13 4 -22 9 -19 4 3 6 -3 2 -13 -6
-22 -6 -37 -5 -266 1 -91 -2 -171 -5 -177 -4 -6 -4 -11 1 -11 4 0 8 -13 8 -30
0 -16 -2 -30 -5 -30 -3 0 -6 -9 -6 -19 0 -11 5 -17 10 -14 5 4 7 -1 3 -10 -3
-9 -1 -18 6 -21 9 -3 9 -5 -1 -5 -10 -1 -9 -8 3 -31 9 -16 13 -30 10 -30 -3 0
9 -15 27 -34 18 -18 36 -32 39 -30 4 2 9 -3 13 -11 3 -8 12 -12 21 -9 8 3 15
2 15 -2 0 -5 22 -9 50 -10 32 0 47 3 44 10 -3 6 2 2 10 -8 9 -11 16 -15 16 -8
0 15 149 13 169 -2 11 -8 13 -8 7 2 -8 14 12 16 33 3 10 -6 10 -10 1 -16 -9
-6 -9 -10 1 -16 11 -7 11 -9 -1 -9 -13 0 -13 -1 0 -10 13 -9 13 -10 0 -10 -13
0 -13 -1 0 -10 13 -9 13 -10 0 -10 -13 0 -13 -1 0 -10 13 -9 13 -10 0 -10 -13
0 -13 -1 0 -10 13 -9 13 -10 0 -10 -13 0 -13 -1 0 -10 13 -9 13 -11 0 -20 -12
-8 -13 -12 -1 -19 10 -7 11 -13 1 -31 -10 -18 -9 -24 1 -31 11 -7 11 -9 -1 -9
-12 0 -12 -2 -1 -9 10 -7 11 -10 1 -16 -10 -6 -9 -11 5 -22 11 -7 13 -13 7
-13 -10 0 -10 -5 -2 -20 6 -11 7 -20 3 -20 -4 0 3 -7 16 -16 18 -13 20 -18 10
-25 -10 -6 -7 -9 11 -9 20 0 22 -2 10 -10 -13 -8 -12 -10 4 -10 12 0 16 -5 13
-14 -4 -10 -1 -13 10 -9 8 3 18 1 22 -5 3 -6 18 -12 31 -14 14 -2 31 -7 39
-12 11 -7 12 -6 6 5 -7 11 -6 12 6 2 12 -10 18 -10 27 -1 7 7 12 8 12 2 0 -5
9 -10 20 -11 13 -1 18 2 14 9 -4 7 -2 8 4 4 22 -13 52 -15 52 -3 0 8 3 8 9 -2
6 -9 11 -10 15 -2 4 7 14 8 24 3 20 -10 33 -10 50 1 6 5 12 4 12 0 0 -5 14 -9
30 -8 17 0 30 4 30 9 0 6 5 5 11 -1 8 -8 20 -8 35 -3 13 5 26 6 28 1 5 -8 26
-8 78 2 15 3 30 1 34 -4 4 -7 10 -7 18 0 6 5 17 6 25 2 7 -4 29 -5 49 -2 34 6
58 7 65 1 9 -7 57 -4 57 5 0 5 4 4 9 -4 6 -10 10 -10 16 -1 6 9 9 9 15 -1 6
-8 13 -10 22 -3 7 5 20 9 28 8 8 -1 25 -2 38 -3 16 -1 21 -5 16 -13 -4 -7 2
-4 14 6 13 11 22 14 22 7 0 -9 5 -9 20 -1 14 8 20 8 20 0 0 -7 6 -8 18 -1 11
6 24 6 34 0 11 -6 19 -6 23 1 4 7 13 7 26 0 14 -8 19 -7 19 2 0 10 2 10 9 -1
6 -9 11 -10 15 -2 4 6 12 9 17 6 5 -4 9 -1 9 5 0 6 6 10 13 8 16 -4 79 60 72
72 -3 6 1 7 10 4 9 -4 15 -3 14 2 -1 5 0 11 1 14 1 3 3 14 5 25 12 61 13 81 4
91 -7 8 -6 15 2 20 8 5 9 3 4 -6 -5 -8 -4 -11 3 -6 6 4 8 17 3 34 -9 35 -6
135 4 152 5 7 4 11 -1 7 -10 -6 -11 143 -1 160 3 5 3 13 0 17 -11 11 -9 165 2
158 6 -3 2 7 -9 22 -10 16 -13 26 -8 22 7 -4 11 11 10 44 0 31 -4 50 -11 50
-7 0 -5 5 3 10 18 11 27 10 223 -35 84 -20 161 -37 172 -40 11 -3 52 -12 90
-21 127 -29 240 -54 265 -59 26 -5 57 -12 175 -40 39 -9 81 -19 95 -21 14 -3
185 -41 380 -86 256 -58 360 -86 373 -99 10 -11 22 -20 27 -20 6 -1 16 -2 23
-3 6 -1 20 1 29 6 17 8 104 -5 145 -22 26 -11 38 1 46 46 6 30 5 31 -46 43
-29 7 -65 15 -82 18 -16 3 -37 11 -46 19 -8 8 -34 14 -56 14 -33 0 -585 120
-903 196 -36 8 -92 21 -125 29 -33 7 -91 21 -130 30 -38 8 -79 17 -90 19 -11
2 -51 12 -90 21 -38 9 -80 19 -93 21 -149 29 -372 85 -373 93 0 3 -2 16 -5 29
-2 12 1 22 7 22 5 0 7 5 3 11 -11 18 -11 229 0 229 6 0 5 5 -1 11 -22 22 0 47
67 77 37 17 105 49 151 71 139 66 329 156 414 195 44 21 123 58 176 84 l97 47
-27 57 c-15 32 -29 60 -32 62 -3 3 -32 -7 -65 -23z m-2393 -404 c2 0 14 5 27
12 16 8 22 9 22 0 0 -6 6 -9 13 -6 48 20 50 20 45 6 -3 -8 -11 -13 -17 -11 -7
1 -9 -2 -6 -8 5 -8 13 -6 26 6 10 9 19 13 19 9 0 -5 5 -4 12 3 8 8 15 9 25 1
7 -7 13 -8 13 -4 0 4 7 2 15 -5 8 -7 12 -17 8 -24 -12 -18 -12 -36 -2 -36 6 0
7 -5 4 -11 -12 -18 -12 -89 -1 -90 6 0 2 -4 -9 -9 l-20 -9 20 0 c17 -1 17 -3
5 -11 -12 -8 -12 -10 -1 -10 11 0 11 -3 0 -16 -10 -13 -10 -17 0 -24 9 -5 10
-13 5 -21 -12 -20 -14 -39 -3 -39 6 0 7 -5 4 -11 -11 -17 -12 -89 -2 -89 5 0
4 -7 -3 -15 -10 -12 -10 -15 0 -15 10 0 10 -3 0 -15 -10 -12 -10 -15 0 -15 10
0 10 -3 0 -15 -10 -12 -10 -15 0 -15 9 0 9 -4 2 -13 -6 -7 -7 -18 -2 -27 4 -7
4 -24 -1 -37 -5 -15 -5 -23 2 -23 6 0 7 -6 2 -12 -11 -18 -10 -52 2 -60 6 -5
4 -8 -5 -8 -13 0 -13 -1 0 -10 13 -9 13 -11 0 -20 -13 -8 -13 -11 -1 -19 8 -5
10 -14 5 -22 -12 -20 -14 -39 -3 -39 5 0 4 -10 -2 -22 -7 -13 -13 -25 -13 -28
-1 -2 -27 -5 -58 -6 -35 0 -55 3 -51 9 4 6 1 7 -8 1 -18 -11 -149 -13 -143 -2
3 4 -1 8 -8 8 -9 0 -9 3 2 10 12 8 12 10 1 10 -11 0 -11 3 -1 15 9 11 9 15 1
15 -7 0 -9 5 -4 13 12 19 12 37 1 37 -6 0 -5 6 2 15 10 12 10 15 0 15 -8 0 -9
4 -4 13 8 11 10 29 4 50 -2 9 -3 66 0 70 6 8 5 49 0 52 -6 4 -6 70 0 70 1 0 3
10 4 23 2 12 0 22 -4 22 -4 0 -4 18 0 40 4 23 3 40 -2 40 -5 0 -6 6 -1 13 12
19 12 37 1 37 -6 0 -5 6 2 15 9 11 9 15 1 15 -7 0 -9 5 -5 12 10 16 11 68 1
68 -5 0 -5 5 -1 12 11 17 11 58 1 58 -4 0 -3 9 3 20 8 15 8 20 -2 20 -9 0 -9
3 -1 11 6 6 9 17 6 24 -3 9 4 13 21 11 15 -2 29 1 32 6 4 6 9 5 14 -2 4 -6 9
-12 11 -13z m1348 -269 c-2 -13 0 -28 4 -34 4 -7 0 -15 -9 -18 -13 -5 -14 -9
-4 -21 6 -8 9 -19 6 -24 -4 -5 -2 -12 3 -16 6 -3 7 -13 4 -21 -4 -11 -13 -14
-32 -9 -14 4 -30 8 -36 9 -20 3 -35 18 -35 34 0 15 2 15 10 2 6 -9 10 -10 10
-3 0 6 -4 14 -8 17 -5 3 -8 18 -8 33 2 22 11 32 46 50 55 28 52 28 49 1z m-28
-232 c22 -5 26 -11 27 -46 1 -30 -2 -39 -11 -35 -6 4 -3 -1 7 -9 11 -9 15 -16
9 -16 -13 0 -12 -32 2 -42 6 -5 5 -8 -2 -8 -7 0 -10 -7 -7 -15 4 -9 0 -15 -7
-15 -11 0 -11 -2 -2 -8 7 -5 11 -24 10 -45 -2 -21 0 -40 4 -43 13 -7 -2 -35
-15 -28 -6 4 -4 -1 4 -10 17 -18 15 -86 -2 -86 -5 0 -2 -7 6 -16 9 -8 13 -21
9 -27 -4 -6 -6 -26 -5 -45 2 -25 -1 -32 -10 -26 -7 4 -4 -3 7 -16 19 -22 19
-23 1 -16 -15 5 -16 4 -8 -7 6 -7 9 -22 7 -32 -2 -11 -4 -22 -4 -25 -1 -3 -5
1 -10 9 -8 12 -12 12 -25 2 -9 -8 -16 -9 -16 -3 0 5 -7 9 -16 8 -19 -1 -28 30
-12 40 6 4 5 10 -3 15 -12 8 -11 11 1 19 8 5 10 10 4 10 -6 0 -11 7 -11 15 0
8 5 15 11 15 6 0 5 4 -2 9 -8 4 -14 12 -14 16 0 4 6 12 14 16 10 7 10 9 1 9
-13 0 -13 26 0 47 4 6 3 14 -3 18 -11 7 -9 33 3 53 5 7 3 12 -4 12 -8 0 -7 5
2 17 11 13 11 15 1 9 -16 -10 -13 25 3 36 6 5 5 8 -4 8 -11 0 -11 3 0 17 9 10
9 14 2 10 -9 -6 -11 4 -7 40 2 26 7 49 9 52 3 2 0 10 -5 16 -7 9 -7 21 0 40 9
24 8 26 -6 21 -13 -5 -14 -4 -6 7 7 8 9 17 6 20 -11 10 7 28 24 23 10 -2 29
-7 43 -10z m-366 -116 c0 -29 -4 -40 -15 -41 -10 0 -8 -3 5 -9 11 -5 14 -9 7
-9 -9 -1 -10 -6 -4 -17 5 -9 6 -32 2 -50 -5 -19 -4 -34 1 -34 5 0 9 -4 9 -10
0 -5 -8 -10 -17 -10 -15 0 -14 -2 3 -16 19 -15 19 -16 -1 -10 -17 5 -18 4 -5
-6 17 -15 21 -68 5 -68 -5 0 -3 -5 5 -10 13 -8 12 -10 -3 -10 -17 0 -17 -1 -1
-17 10 -10 12 -19 6 -21 -8 -2 -8 -11 -1 -29 8 -22 7 -24 -8 -19 -15 5 -15 4
1 -9 12 -9 15 -15 7 -15 -11 0 -11 -3 -1 -15 7 -8 8 -15 3 -15 -6 0 -8 -12 -5
-27 2 -16 1 -25 -3 -21 -4 4 -17 3 -28 -3 -14 -8 -18 -8 -13 0 9 14 0 14 -26
0 -15 -8 -19 -8 -14 0 4 6 1 11 -6 11 -9 0 -9 3 2 10 8 5 11 10 5 10 -5 0 -10
11 -10 25 0 14 5 25 10 25 6 0 4 4 -4 9 -8 5 -10 14 -5 22 11 18 13 49 3 49
-9 0 -6 41 4 57 3 5 4 13 0 17 -11 10 -9 56 2 56 5 0 3 5 -5 10 -12 8 -12 10
-1 10 11 0 11 3 1 15 -10 12 -10 18 1 32 12 15 12 16 -1 8 -13 -8 -13 -7 -1 8
7 10 9 17 3 17 -11 0 -10 25 1 36 4 4 2 13 -5 21 -8 10 -8 17 0 25 7 7 7 19 2
34 -9 23 -8 24 43 24 l52 0 0 -40z"/>
<path d="M558 3828 c-68 -23 -42 -130 30 -122 48 5 74 59 47 100 -17 26 -42
33 -77 22z"/>
<path d="M5693 3827 c-24 -10 -42 -51 -35 -80 6 -27 56 -49 87 -37 46 17 53
89 11 112 -29 16 -37 17 -63 5z"/>
<path d="M480 3530 c-28 -28 -25 -64 7 -90 64 -50 141 32 83 90 -11 11 -31 20
-45 20 -14 0 -34 -9 -45 -20z"/>
<path d="M5730 3530 c-26 -26 -25 -51 1 -84 25 -31 57 -33 87 -6 26 24 28 57
6 88 -19 28 -67 29 -94 2z"/>
<path d="M340 3218 l0 -58 250 0 250 0 0 58 0 58 -250 0 -250 -1 0 -57z"/>
<path d="M5540 3218 l0 -58 250 0 250 0 0 58 0 58 -250 0 -250 0 0 -58z"/>
<path d="M488 2983 c-28 -33 -29 -63 -3 -89 29 -28 55 -31 83 -6 31 27 35 55
11 85 -24 32 -68 36 -91 10z"/>
<path d="M5725 2980 c-36 -40 -7 -110 47 -110 31 0 71 46 62 73 -17 56 -74 76
-109 37z"/>
<path d="M553 2727 c-30 -13 -48 -59 -34 -86 15 -27 40 -39 71 -34 36 5 53 27
52 63 -1 47 -47 76 -89 57z"/>
<path d="M606 2436 c-31 -30 -33 -59 -6 -86 41 -41 110 -14 110 41 0 33 -19
56 -52 64 -21 5 -33 1 -52 -19z"/>
<path d="M5630 2453 c-39 -16 -50 -59 -24 -98 31 -47 114 -19 114 38 0 28 -9
41 -37 56 -24 12 -30 12 -53 4z"/>
<path d="M717 2192 c-36 -39 -14 -97 39 -108 26 -5 35 -1 53 21 26 35 27 55 1
83 -25 27 -71 29 -93 4z"/>
<path d="M5496 2194 c-9 -8 -16 -18 -17 -22 0 -4 -2 -15 -4 -24 -4 -24 24 -56
56 -63 56 -14 94 61 54 105 -22 24 -68 26 -89 4z"/>
<path d="M903 1967 c-117 -67 -212 -126 -213 -132 0 -5 10 -27 23 -47 l22 -37
215 124 c118 69 219 126 224 128 12 4 -32 87 -47 87 -6 0 -107 -55 -224 -123z"/>
<path d="M5209 2048 c-12 -23 -18 -44 -13 -45 5 -2 106 -60 224 -128 l215
-124 22 37 c13 20 23 42 23 47 0 6 -32 28 -72 50 -78 44 -73 41 -239 138 -64
37 -121 67 -127 67 -7 0 -21 -19 -33 -42z"/>
<path d="M980 1712 c-27 -22 -29 -65 -5 -92 53 -59 143 21 94 83 -24 31 -57
35 -89 9z"/>
<path d="M5235 1706 c-17 -17 -22 -31 -18 -47 19 -78 104 -79 127 -2 5 17 1
29 -18 48 -31 31 -60 32 -91 1z"/>
<path d="M1170 1507 c-61 -31 -43 -117 24 -117 38 0 66 25 66 61 0 30 -9 43
-37 58 -26 13 -22 13 -53 -2z"/>
<path d="M5065 1499 c-29 -24 -32 -58 -7 -89 24 -30 70 -30 94 0 50 61 -24
137 -87 89z"/>
<path d="M1345 1305 c-13 -12 -22 -31 -20 -41 2 -11 4 -24 4 -31 1 -7 13 -19
28 -26 55 -29 111 18 91 75 -9 25 -28 37 -67 44 -7 1 -24 -8 -36 -21z"/>
<path d="M4900 1323 c-30 -11 -50 -37 -50 -63 0 -57 76 -84 112 -40 25 30 23
56 -7 85 -25 26 -30 27 -55 18z"/>
<path d="M4355 1194 c-22 -13 -39 -29 -37 -35 1 -6 39 -75 84 -152 45 -78 95
-167 112 -197 57 -103 47 -96 94 -69 23 13 42 27 42 30 0 6 -244 436 -252 444
-2 2 -21 -8 -43 -21z"/>
<path d="M1860 1023 c-58 -103 -115 -201 -127 -219 l-22 -33 45 -26 c25 -15
47 -25 48 -23 4 4 196 340 229 400 l27 48 -40 20 c-21 11 -43 20 -47 20 -4 0
-55 -84 -113 -187z"/>
<path d="M1551 1124 c-12 -15 -21 -32 -21 -39 0 -23 41 -65 64 -65 38 0 66 28
66 65 0 62 -71 87 -109 39z"/>
<path d="M4660 1130 c-40 -40 -14 -110 41 -110 60 0 90 69 47 110 -28 25 -62
26 -88 0z"/>
<path d="M2044 855 c-19 -19 -23 -31 -18 -48 16 -55 74 -76 107 -39 25 27 22
78 -5 96 -32 22 -55 20 -84 -9z"/>
<path d="M4170 860 c-40 -40 -11 -110 45 -110 26 0 65 31 65 53 0 31 -14 55
-36 66 -35 16 -51 14 -74 -9z"/>
<path d="M3130 620 l0 -250 60 0 59 0 0 250 0 250 -59 0 -60 0 0 -250z"/>
<path d="M2292 753 c-34 -30 -37 -59 -8 -88 32 -32 69 -32 94 0 32 40 4 105
-43 105 -13 0 -32 -8 -43 -17z"/>
<path d="M3932 754 c-15 -10 -22 -25 -22 -49 0 -61 67 -86 109 -41 17 18 20
30 15 52 -13 52 -58 69 -102 38z"/>
<path d="M2561 684 c-24 -31 -25 -35 -10 -68 26 -56 119 -37 119 24 0 64 -71
92 -109 44z"/>
<path d="M3652 690 c-42 -39 -14 -110 43 -110 31 0 65 33 65 63 0 30 -35 67
-64 67 -12 0 -32 -9 -44 -20z"/>
<path d="M2825 635 c-43 -42 -16 -105 44 -105 37 0 61 23 61 59 0 35 -18 57
-53 65 -21 5 -33 1 -52 -19z"/>
<path d="M3396 639 c-50 -40 -24 -109 42 -109 33 0 62 29 62 63 0 21 -43 67
-63 67 -8 0 -26 -9 -41 -21z"/>
</g>
</svg>
