<?xml version="1.0" standalone="no"?>
<!DOCTYPE svg PUBLIC "-//W3C//DTD SVG 20010904//EN"
  "http://www.w3.org/TR/2001/REC-SVG-20010904/DTD/svg10.dtd">
<svg version="1.0" xmlns="http://www.w3.org/2000/svg"
     width="192.000000pt" height="192.000000pt" viewBox="0 0 192.000000 192.000000"
     preserveAspectRatio="xMidYMid meet">
  <metadata>
    Created by potrace 1.11, written by Peter Selinger 2001-2013
  </metadata>
  <g transform="translate(0.000000,192.000000) scale(0.100000,-0.100000)"
     fill="#000000" stroke="none">
    <path d="M802 1909 c-281 -41 -550 -236 -691 -501 -249 -465 -69 -1047 401
-1297 465 -249 1047 -69 1297 401 174 324 140 738 -82 1027 -220 286 -559 422
-925 370z m343 -92 c244 -52 449 -203 580 -427 147 -253 147 -607 0 -860 -166
-284 -442 -444 -765 -444 -323 0 -599 160 -765 444 -147 253 -147 607 0 860
133 227 343 380 585 426 41 8 80 16 85 19 19 9 211 -4 280 -18z"/>
    <path d="M918 1804 c-52 -28 -49 -102 4 -130 30 -15 34 -15 64 1 54 29 56 97
4 128 -34 20 -37 20 -72 1z"/>
    <path d="M497 1623 c-15 -14 -6 -53 14 -64 18 -9 25 -7 41 9 16 16 18 23 9 41
-11 20 -50 29 -64 14z"/>
    <path d="M1374 1606 c-12 -32 0 -61 28 -64 34 -4 54 27 38 58 -12 23 -58 27
-66 6z"/>
    <path d="M1378 1368 c-13 -13 -40 -37 -59 -53 -19 -17 -78 -70 -132 -119 -54
-48 -99 -87 -101 -85 -1 2 -10 16 -19 31 -22 35 -52 44 -82 24 -31 -20 -49
-20 -65 -1 -9 11 -26 15 -54 13 -33 -2 -44 -9 -63 -37 -21 -30 -23 -42 -17
-92 l6 -58 -58 19 c-33 10 -93 28 -134 40 -41 12 -93 28 -115 35 -38 12 -185
56 -232 70 -16 4 -25 0 -33 -16 -15 -27 -7 -34 60 -53 59 -16 141 -41 255 -75
39 -12 93 -28 120 -36 28 -8 68 -21 90 -29 l40 -14 3 -74 c4 -118 4 -118 143
-118 l117 0 49 -57 c26 -31 55 -64 63 -73 8 -8 25 -28 37 -44 23 -29 48 -30
59 -2 5 14 -30 60 -164 211 l-35 40 29 3 c49 6 54 17 54 113 0 80 -2 89 -22
100 -20 11 -20 13 -4 24 9 7 43 37 75 66 93 87 212 193 233 207 22 16 21 55
-3 60 -8 1 -27 -8 -41 -20z m-479 -247 c12 -22 91 -27 91 -6 0 22 27 25 45 5
16 -18 16 -19 -6 -24 -13 -3 -53 -7 -89 -8 -63 -3 -65 -4 -71 -33 l-7 -30 -1
33 c-1 21 -6 32 -16 32 -18 0 -20 36 -2 43 25 11 47 6 56 -12z m196 -191 c0
-54 -3 -65 -17 -68 -16 -3 -18 5 -18 68 0 63 2 71 18 68 14 -3 17 -14 17 -68z"/>
    <path d="M240 1329 c-10 -18 -9 -25 8 -41 27 -28 65 -9 60 30 -4 36 -51 44
-68 11z"/>
    <path d="M1627 1304 c-14 -15 -6 -54 13 -64 31 -16 62 4 58 38 -2 22 -9 28
-33 30 -17 2 -34 0 -38 -4z"/>
    <path d="M139 1030 c-9 -5 -22 -23 -29 -39 -23 -56 31 -111 93 -96 13 4 31 20
41 36 15 26 16 35 6 60 -19 45 -70 63 -111 39z"/>
    <path d="M1689 991 c-16 -16 -29 -39 -29 -51 0 -28 52 -80 80 -80 28 0 80 52
80 80 0 28 -52 80 -80 80 -12 0 -35 -13 -51 -29z"/>
    <path d="M240 641 c-16 -32 4 -63 38 -59 24 3 27 7 27 38 0 31 -3 35 -27 38
-19 2 -30 -3 -38 -17z"/>
    <path d="M1606 631 c-25 -28 -5 -63 32 -59 34 4 44 45 16 65 -23 17 -28 17
-48 -6z"/>
    <path d="M1310 325 c-15 -18 -10 -45 13 -59 34 -22 73 27 47 59 -16 19 -44 19
-60 0z"/>
    <path d="M586 317 c-28 -20 -18 -61 16 -65 37 -4 57 31 32 59 -20 23 -25 23
-48 6z"/>
    <path d="M916 217 c-33 -33 -33 -71 -1 -102 31 -32 69 -32 102 1 21 21 24 32
20 61 -8 45 -15 52 -60 60 -29 4 -40 1 -61 -20z"/>
  </g>
</svg>
